{
    "accessors" : [
        {
            "bufferView" : 0, 
            "componentType" : 5121, 
            "count" : 6, 
            "max" : [
                3
            ], 
            "min" : [
                0
            ], 
            "type" : "SCALAR"
        }, 
        {
            "bufferView" : 1, 
            "componentType" : 5126, 
            "count" : 4, 
            "max" : [
                1.0, 
                0.0, 
                1.0
            ], 
            "min" : [
                -1.0, 
                0.0, 
                -1.0
            ], 
            "type" : "VEC3"
        }, 
        {
            "bufferView" : 2, 
            "componentType" : 5126, 
            "count" : 4, 
            "max" : [
                0.0, 
                1.0, 
                -0.0
            ], 
            "min" : [
                0.0, 
                1.0, 
                -0.0
            ], 
            "type" : "VEC3"
        }, 
        {
            "bufferView" : 3, 
            "componentType" : 5123, 
            "count" : 2880, 
            "max" : [
                1983
            ], 
            "min" : [
                0
            ], 
            "type" : "SCALAR"
        }, 
        {
            "bufferView" : 4, 
            "componentType" : 5126, 
            "count" : 1984, 
            "max" : [
                1.000000238418579, 
                1.0, 
                1.0000003576278687
            ], 
            "min" : [
                -0.9999998211860657, 
                -1.0, 
                -0.9999991655349731
            ], 
            "type" : "VEC3"
        }, 
        {
            "bufferView" : 5, 
            "componentType" : 5126, 
            "count" : 1984, 
            "max" : [
                0.9904382228851318, 
                0.99513840675354, 
                0.9904382824897766
            ], 
            "min" : [
                -0.9904382228851318, 
                -0.99513840675354, 
                -0.9904387593269348
            ], 
            "type" : "VEC3"
        }, 
        {
            "bufferView" : 6, 
            "componentType" : 5126, 
            "count" : 4, 
            "max" : [
                2.4583333333333335
            ], 
            "min" : [
                0.0
            ], 
            "type" : "SCALAR"
        }, 
        {
            "bufferView" : 7, 
            "componentType" : 5126, 
            "count" : 12, 
            "max" : [
                1.0
            ], 
            "min" : [
                0.0
            ], 
            "type" : "SCALAR"
        }, 
        {
            "bufferView" : 8, 
            "componentType" : 5126, 
            "count" : 44, 
            "max" : [
                1.7916666666666665
            ], 
            "min" : [
                0.0
            ], 
            "type" : "SCALAR"
        }, 
        {
            "bufferView" : 9, 
            "componentType" : 5126, 
            "count" : 44, 
            "max" : [
                1.0, 
                1.0152547359466553, 
                1.0, 
                1.0
            ], 
            "min" : [
                0.0, 
                0.0, 
                -0.022814711555838585, 
                0.008302062749862671
            ], 
            "type" : "VEC4"
        }
    ], 
    "animations" : [
        {
            "channels" : [], 
            "extensions" : {
                "EXT_property_animation" : {
                    "channels" : [
                        {
                            "sampler" : 0, 
                            "target" : "/materials/1/pbrMetallicRoughness/roughnessFactor"
                        }, 
                        {
                            "sampler" : 1, 
                            "target" : "/materials/1/pbrMetallicRoughness/baseColorFactor"
                        },
                        {
                            "sampler" : 1, 
                            "target" : "/extensions/KHR_lights/lights/1/color"
                        },
                        {
                            "sampler" : 1, 
                            "target" : "/extensions/KHR_lights/lights/0/color"
                        }
                    ]
                }
            }, 
            "samplers" : [
                {
                    "input" : 6, 
                    "interpolation" : "CUBICSPLINE", 
                    "output" : 7
                }, 
                {
                    "input" : 8, 
                    "interpolation" : "LINEAR", 
                    "output" : 9
                }
            ]
        }
    ], 
    "asset" : {
        "generator" : "Khronos Blender glTF 2.0 exporter", 
        "version" : "2.0"
    }, 
    "bufferViews" : [
        {
            "buffer" : 0, 
            "byteLength" : 6, 
            "byteOffset" : 0, 
            "target" : 34963
        }, 
        {
            "buffer" : 0, 
            "byteLength" : 48, 
            "byteOffset" : 8, 
            "target" : 34962
        }, 
        {
            "buffer" : 0, 
            "byteLength" : 48, 
            "byteOffset" : 56, 
            "target" : 34962
        }, 
        {
            "buffer" : 0, 
            "byteLength" : 5760, 
            "byteOffset" : 104, 
            "target" : 34963
        }, 
        {
            "buffer" : 0, 
            "byteLength" : 23808, 
            "byteOffset" : 5864, 
            "target" : 34962
        }, 
        {
            "buffer" : 0, 
            "byteLength" : 23808, 
            "byteOffset" : 29672, 
            "target" : 34962
        }, 
        {
            "buffer" : 0, 
            "byteLength" : 16, 
            "byteOffset" : 53480
        }, 
        {
            "buffer" : 0, 
            "byteLength" : 48, 
            "byteOffset" : 53496
        }, 
        {
            "buffer" : 0, 
            "byteLength" : 176, 
            "byteOffset" : 53544
        }, 
        {
            "buffer" : 0, 
            "byteLength" : 704, 
            "byteOffset" : 53720
        }
    ], 
    "buffers" : [
        {
            "byteLength" : 54424, 
            "uri" : "animated_material.bin"
        }
    ], 
    "extensionsUsed" : [
        "EXT_property_animation",
        "KHR_lights"
    ], 
    "extensions": {
        "KHR_lights" : {
            "lights": [
                {
                    "color": [
                        1.0,
                        1.0,
                        1.0
                    ],
                    "type": "directional"
                },
                {
                    "color": [
                        1.0,
                        1.0,
                        1.0
                    ],
                    "type": "ambient"
                }
            ]
        }
    },
    "materials" : [
        {
            "doubleSided" : true, 
            "name" : "Plane", 
            "pbrMetallicRoughness" : {}
        }, 
        {
            "alphaMode" : "BLEND", 
            "name" : "Shpere", 
            "pbrMetallicRoughness" : {
                "baseColorFactor" : [
                    1.0, 
                    0.0, 
                    0.0, 
                    0.02004110813140869
                ], 
                "roughnessFactor" : 0.0
            }
        }
    ], 
    "meshes" : [
        {
            "name" : "Plane", 
            "primitives" : [
                {
                    "attributes" : {
                        "NORMAL" : 2, 
                        "POSITION" : 1
                    }, 
                    "indices" : 0, 
                    "material" : 0
                }
            ]
        }, 
        {
            "name" : "Sphere", 
            "primitives" : [
                {
                    "attributes" : {
                        "NORMAL" : 5, 
                        "POSITION" : 4
                    }, 
                    "indices" : 3, 
                    "material" : 1
                }
            ]
        }
    ], 
    "nodes" : [
        {
            "name" : "Camera", 
            "rotation" : [
                0.483536034822464, 
                0.33687159419059753, 
                -0.20870360732078552, 
                0.7804827094078064
            ], 
            "translation" : [
                7.481131553649902, 
                5.34366512298584, 
                6.5076398849487305
            ]
        }, 
        {
            "name" : "Lamp", 
            "rotation" : [
                0.16907575726509094, 
                0.7558802962303162, 
                -0.27217137813568115, 
                0.570947527885437
            ], 
            "scale" : [
                1.0, 
                1.0, 
                0.9999999403953552
            ], 
            "translation" : [
                4.076245307922363, 
                5.903861999511719, 
                -1.0054539442062378
            ],
            "extensions" : {
                "KHR_lights" : {
                    "light" : 0
                }
            }
        }, 
        {
            "mesh" : 0, 
            "name" : "Plane", 
            "rotation" : [
                0.12063881754875183, 
                -0.04752088710665703, 
                -0.36340734362602234, 
                0.922563374042511
            ], 
            "translation" : [
                0.0, 
                1.0, 
                -0.0
            ]
        }, 
        {
            "mesh" : 1, 
            "name" : "Sphere", 
            "translation" : [
                0.0, 
                1.0, 
                -0.0
            ]
        }
    ], 
    "scene" : 0, 
    "scenes" : [
        {
            "name" : "Scene", 
            "nodes" : [
                2, 
                3, 
                1, 
                0
            ],
            "extensions" : {
                "KHR_lights" : {
                    "light" : 1
                }
            }
        }
    ]
}
